<svg viewBox="0 0 100 100" fill="none" xmlns="http://www.w3.org/2000/svg">
<g opacity="0.7" clip-path="url(#clip0_29_19)">
<path d="M115.258 59.3762L114.641 56.4211H114.473C114.191 57.4554 113.935 58.4998 113.63 59.5256C113.03 61.4885 112.141 63.2766 110.338 64.4352C110.033 64.6316 109.635 64.6871 109.281 64.8063C109.174 64.4486 108.975 64.091 108.975 63.7333C108.975 62.8115 109.113 61.8864 109.101 60.9663C109.073 58.7617 108.538 56.7099 107.054 54.9922C106.966 54.8932 106.859 54.8092 106.581 54.5506C106.454 55.4137 106.277 56.1088 106.262 56.8056C106.196 59.9857 105.005 62.7629 103.094 65.2176C102.42 66.0857 101.426 66.7707 100.456 67.3332C99.5932 67.8369 99.0894 67.4256 99.0894 66.3963C99.0876 65.7813 99.1349 65.167 99.231 64.5594C99.6572 61.9082 99.3826 59.3175 98.6025 56.767C98.4988 56.4191 98.348 56.087 98.1543 55.7797C97.6488 54.9805 96.9749 54.8377 96.2605 55.4439C94.9294 56.6041 93.6623 57.8365 92.3397 59.0068C90.6126 60.5348 88.6481 61.4851 86.274 61.1191C84.2134 60.8017 82.5672 59.8665 81.8377 57.761C81.7817 57.6027 81.74 57.4397 81.713 57.274C81.7024 57.1164 81.7024 56.9582 81.713 56.8006C79.3187 56.547 77.2345 55.501 75.1856 54.0436C74.8487 55.8905 74.4628 57.6132 74.205 59.3477C73.6237 63.2699 74.205 67.12 75.3036 70.8693C76.2606 74.1334 77.2783 77.4176 78.6212 80.5289C81.2345 86.607 80.2202 92.2822 77.1671 97.8096C75.1873 101.393 72.2185 104.074 68.8891 106.388C62.4865 110.837 55.2768 112.693 47.5818 112.995C47.1667 112.985 46.7526 112.951 46.3417 112.893C47.8177 112.021 49.2279 111.319 50.4916 110.414C55.6609 106.72 58.6803 101.604 60.0063 95.4707C61.088 90.4722 60.6904 85.5274 59.3037 80.6246C57.8743 75.561 55.9064 70.664 53.4335 66.0168C50.9499 61.3474 48.3333 56.7502 45.7756 52.1227C45.6812 51.9548 45.57 51.7869 45.4386 51.5804C43.6694 53.8303 41.2398 54.8965 38.5861 55.5883C38.4785 55.6287 38.3807 55.6911 38.2989 55.7715C38.217 55.8519 38.153 55.9485 38.1109 56.0551C37.1135 58.9094 34.3788 60.3853 31.4286 59.6533C29.8043 59.2486 28.4345 58.4108 27.2331 57.2774C25.9695 56.0853 24.7294 54.8646 23.4623 53.6758C22.7749 53.0311 22.2543 52.9774 21.7235 53.7632C21.1456 54.6195 20.5828 55.6269 20.4632 56.6175C20.1582 59.1361 20.1178 61.6866 19.9409 64.2236C19.9122 64.6316 19.796 65.3217 19.5887 65.3738C19.1271 65.4913 18.4767 65.4493 18.0908 65.1924C15.0159 63.1457 13.3445 60.1989 12.812 56.594C12.6435 55.3868 12.5761 54.1628 12.4414 52.7188C10.9452 54.2299 10.2796 55.8838 10.1701 57.6569C10.0606 59.4299 10.3083 61.2013 10.4178 63.2918C9.67978 62.8518 9.03446 62.6201 8.60144 62.1819C6.46666 60.021 5.16423 57.4453 4.91486 54.3844C4.87611 53.9193 4.80029 53.4576 4.74637 52.9941L4.5307 52.9538C4.19371 54.3105 3.84157 55.6655 3.43719 57.2606C2.99743 56.8157 2.54252 56.5537 2.3993 56.1743C1.76578 54.4835 1.11035 52.7876 0.670586 51.0414C-0.0252815 48.2811 -0.203888 45.477 0.36898 42.6462C1.81632 35.4749 8.52899 30.866 15.1288 31.5846C19.7825 32.0883 23.4708 34.0108 26.9231 36.9021C29.282 38.8717 31.8431 40.596 34.3367 42.3977C34.7782 42.715 35.3477 42.8812 35.8818 43.0407C37.8885 43.6435 39.5515 42.7486 39.7571 40.675C39.9256 39.0345 39.7436 37.3337 39.5246 35.6832C38.3653 26.9219 39.6931 18.6123 44.121 10.9105C45.8868 7.84453 48.0131 4.99519 51.0173 2.98201C56.0282 -0.376092 61.393 -0.906688 66.9633 1.3701C72.0584 3.4538 75.2193 7.48184 77.5192 12.2839C81.4097 20.4122 81.9303 28.9367 80.5285 37.698C80.3254 38.9377 80.2784 40.1977 80.3886 41.449C80.5571 43.3446 81.9758 44.2681 83.8562 43.8987C85.7147 43.555 87.4495 42.7292 88.8856 41.5044C91.1434 39.5718 93.3759 37.604 96.1307 36.3581C98.9951 35.0636 101.977 34.0075 105.121 34.1519C109.137 34.3466 112.956 35.3557 115.763 38.5896C117.954 41.1182 118.845 44.1304 118.983 47.3996C119.121 50.7056 118.73 53.9478 117.312 56.9701C116.897 57.8567 116.227 58.624 115.674 59.4467L115.258 59.3762ZM71.5227 28.3743C71.1857 28.6362 71.0391 28.7487 70.8925 28.8595C70.3331 29.2877 69.836 29.882 69.2076 30.1171C65.0897 31.6484 60.8538 32.2898 56.5034 31.3227C53.9929 30.7635 51.4487 30.1977 49.5194 28.2853C49.4001 28.2033 49.2696 28.1389 49.1319 28.0939C49.1033 28.1827 49.0846 28.2745 49.0763 28.3675C49.0825 28.5065 49.0971 28.645 49.1201 28.7823C49.4065 30.824 50.5944 32.2545 52.3012 33.2771C55.8395 35.3994 59.7148 35.6546 63.6845 35.0099C66.1596 34.6086 68.4561 33.7422 70.1528 31.7643C70.9918 30.8278 71.4763 29.6288 71.5227 28.3743ZM49.5312 17.9322C49.5477 18.1759 49.5803 18.4182 49.629 18.6576C50.326 20.8244 51.5401 22.7902 53.1673 24.3865C53.6357 24.8466 54.3467 25.0951 54.9887 25.3385C55.5817 25.5635 56.0451 25.2882 56.4073 24.7593C57.1689 23.6461 56.9667 22.4086 56.9987 21.1342C54.2667 20.7528 51.6876 19.647 49.5312 17.9322ZM63.7215 21.6799C63.6946 22.1937 63.639 22.6353 63.6558 23.0752C63.6946 24.0625 63.9372 25.0011 64.9128 25.4594C65.8411 25.8943 66.6718 25.4275 67.3946 24.8801C69.3997 23.3589 70.4123 21.1392 71.4704 18.9598C71.4704 18.9464 71.4451 18.9128 71.398 18.8339C69.1351 20.4642 66.5842 21.3307 63.7198 21.6799H63.7215Z" fill="#680303"/>
</g>
<defs>
<clipPath id="clip0_29_19">
<rect width="119" height="113" fill="white"/>
</clipPath>
</defs>
</svg>
