<svg viewBox="0 0 100 100" fill="none" xmlns="http://www.w3.org/2000/svg">
<g clip-path="url(#clip0_24_210)">
<path d="M28.3171 7.62939e-06H32.2477C33.4599 0.225542 34.6721 0.400788 35.8616 0.685754C41.1757 1.95819 45.67 4.76976 49.8748 8.17411C51.2386 9.2774 52.1735 10.4096 51.9704 12.2779C51.9159 12.7808 52.0568 13.4574 52.3735 13.8216C53.3117 14.9157 53.9573 16.232 54.2494 17.6465C54.46 18.5837 54.8101 19.4889 55.0192 20.4246C55.2027 21.1819 55.3043 21.957 55.3222 22.7363C55.3222 26.258 55.2313 29.7812 55.2798 33.3029C55.304 35.0813 55.1283 36.7819 54.3343 38.3835C54.0903 38.8803 54.1827 39.2415 54.5494 39.6651C54.9161 40.0887 55.3389 40.6114 55.3601 41.1082C55.6465 47.6396 54.9449 54.1892 55.7813 60.7206C55.9632 62.1378 56.539 63.1588 57.5845 64.1143V60.3594C57.7734 60.5213 57.9026 60.7425 57.9512 60.9872C58.3007 62.3526 58.6482 63.7191 58.9937 65.0865V66.7628C58.8329 67.0976 58.6486 67.4204 58.4422 67.7289C57.5072 68.9389 56.7481 70.2067 56.4723 71.7641C56.3208 72.6221 55.595 72.968 54.7252 72.7897C53.6297 72.5657 52.7205 72.0811 52.128 71.0342C51.6371 70.1656 51.1355 70.1442 50.5249 70.8102C49.4399 71.9927 49.0778 72.0217 47.5974 71.3313C46.7078 70.9261 45.7877 70.5923 44.8456 70.3332C44.0259 70.1001 43.188 70.132 42.5046 70.7751C41.6909 71.5371 40.7741 71.5203 39.8377 71.1012C39.1043 70.7721 38.4133 70.3393 37.686 70.001C36.0192 69.2071 34.9358 69.4265 33.7115 70.7736C33.0826 71.4639 32.625 71.5508 31.7598 71.1729C31.2537 70.9519 30.7324 70.766 30.2233 70.5481C29.5824 70.2753 29.0414 70.4444 28.5701 70.9108C28.2292 71.2475 27.9201 71.6194 27.5701 71.9455C26.4624 72.9771 25.0441 72.9101 24.0365 71.7931C23.8501 71.5874 23.6758 71.3694 23.4773 71.1835C22.7879 70.51 22.3333 70.5465 21.7348 71.31C20.8256 72.4712 20.7044 72.52 19.327 71.9516C18.6179 71.6605 18.0678 71.7672 17.4526 72.2563C16.9615 72.6331 16.3852 72.8818 15.7752 72.9802C14.5827 73.1615 13.5872 72.6983 12.7311 71.8159C11.5689 70.6182 10.8461 70.5511 9.36867 71.3359C8.81257 71.63 8.28526 72.0079 7.70188 72.2121C6.31086 72.6967 4.8456 73.1265 3.47579 72.2822C2.07417 71.4167 1.30138 69.969 0.558902 68.5061L3.02576 69.585L3.0894 69.4753L-0.0017395 65.5863L0.113413 65.4857L3.09244 67.1087C2.27571 65.0773 1.53777 63.2411 0.721037 61.2143L5.48959 64.4861C5.36382 60.335 5.24563 56.3607 5.12441 52.388C4.95015 46.7405 4.78196 41.0945 4.588 35.4485C4.56528 34.807 4.77439 34.5129 5.40625 34.4504C6.01236 34.3909 6.60483 34.266 7.38519 34.1456C6.70181 33.7189 6.21237 33.3608 5.67597 33.0956C5.13956 32.8305 4.96834 32.4175 4.97591 31.8156C5.01379 28.6505 5.00016 25.4823 5.03501 22.3157C5.02702 21.8132 5.11925 21.3142 5.30624 20.8482C5.90374 19.5874 6.10056 18.172 5.86993 16.7947C5.7184 15.8514 6.05478 15.44 6.98213 15.2205C7.71249 15.0468 8.45193 14.9157 9.23381 14.7634C8.95955 13.8795 8.69893 13.0642 8.45497 12.2444C8.26253 11.5967 8.32314 11.007 8.8459 10.5056C9.40958 9.96313 9.93083 9.37644 10.4991 8.82936C14.7297 4.81394 19.5225 1.80428 25.2775 0.547076C26.2821 0.30935 27.3049 0.17373 28.3171 7.62939e-06ZM26.226 19.5682L26.0563 19.6078C25.995 19.4818 25.9492 19.3487 25.9199 19.2116C25.8124 17.9727 25.2638 17.0035 24.3547 16.144C23.1425 14.9965 22.2773 13.6067 22.1621 11.8573C22.1454 11.5967 22.1 11.3361 22.0681 11.0756C22.0067 11.0781 21.9471 11.0976 21.8961 11.132C21.845 11.1665 21.8044 11.2144 21.7787 11.2706C21.0211 12.2779 20.2134 13.2136 18.7633 13.0901C18.6118 13.0779 18.3966 13.2547 18.2936 13.3949C17.3844 14.6917 16.4753 15.9855 15.607 17.3159C15.304 17.773 15.1267 18.2942 14.8176 18.9434C14.9494 16.4655 16.0934 14.7039 17.7405 13.2928C16.2434 12.1088 14.7858 13.1084 13.2614 13.2456C14.4282 12.127 15.6282 11.5282 17.1693 11.9762C17.6239 12.1072 18.1209 12.0661 18.5936 12.1362C19.3422 12.2474 19.8649 11.9747 20.3362 11.3666C21.4787 9.89151 22.6849 8.47125 23.8668 7.01899C24.0183 6.82851 24.1698 6.63955 24.3456 6.43078C21.356 5.6795 20.3316 6.04066 17.6436 8.7547C17.9708 6.72184 19.3225 5.48293 21.2999 5.44636C24.4213 5.38997 27.5428 5.38083 30.6627 5.29397C31.231 5.27721 31.928 5.10348 32.3295 4.73775C33.222 3.91333 33.9615 2.92433 34.8722 1.8759C31.5022 1.23434 28.3989 1.30292 25.326 2.01457C18.9846 3.48512 13.8705 7.07234 9.30504 11.5678C9.15351 11.711 9.11714 12.0783 9.17927 12.2962C9.48232 13.3416 9.83084 14.3702 10.1551 15.4064C10.3839 16.1425 10.2293 16.3512 9.45201 16.4152C8.50345 16.493 7.55339 16.5783 6.58968 16.6606C6.58968 17.0233 6.5427 17.3311 6.58968 17.6206C6.76142 18.5214 6.62413 19.454 6.20025 20.2661C5.78903 21.1358 5.59849 22.0944 5.64566 23.0563C5.6896 25.1593 5.64566 27.2622 5.64566 29.3667C5.64566 30.3252 5.37443 31.4468 5.77598 32.1981C6.15934 32.9158 7.26548 33.2328 8.03069 33.7601C8.21858 33.8896 8.31557 34.1517 8.45497 34.3528C8.24132 34.4793 8.03979 34.6744 7.81098 34.7201C6.9594 34.8923 6.10025 35.0142 5.24564 35.1559C5.5896 46.3504 5.92902 57.4396 6.26844 68.5289C6.73817 68.6813 6.98516 68.564 7.16699 68.1144C7.71552 66.7689 8.31102 65.4446 8.97622 63.9116L9.46262 66.5753L10.7536 65.6396C10.837 66.6911 10.9052 67.6375 10.993 68.6524H18.0421C18.3633 66.6195 18.6845 64.5973 19.0043 62.5736C19.5785 63.9908 19.9998 65.4095 20.4316 66.8268C20.6211 67.45 20.6574 68.3019 21.0817 68.6219C21.506 68.9419 22.3333 68.759 22.9849 68.759C23.8577 68.759 24.979 69.047 25.532 68.6143C26.0851 68.1815 26.0927 67.0096 26.3336 66.1608C26.4851 65.6534 26.6139 65.1444 26.7533 64.6369L26.8897 64.672C27.1746 66.0511 27.4579 67.4287 27.758 68.887C29.6657 68.887 31.5264 68.9023 33.3872 68.8688C33.5963 68.8688 33.8675 68.6371 33.9933 68.4375C34.8888 67.066 35.754 65.6656 36.6314 64.2758C37.086 63.5611 37.5405 62.8494 38.0891 61.99C38.3406 63.9207 38.5679 65.6595 38.8164 67.5613L41.1651 64.8686C41.3469 67.2717 42.8546 67.6344 44.6153 67.6923C45.5154 67.7213 46.523 68.1358 47.2822 67.8447C48.0777 67.5399 48.6096 66.5768 49.3005 65.949C49.6975 65.5894 49.796 65.1977 49.7945 64.6842C49.7672 57.8663 49.7294 51.05 49.7718 44.2337C49.7809 42.8119 49.6021 41.5258 48.699 40.4103C48.258 39.8662 48.2641 39.3588 48.6278 38.7736C49.399 37.5301 49.5566 36.1739 49.5112 34.711C49.3809 30.4319 49.3687 26.1483 49.2914 21.8662C49.2763 21.4909 49.1947 21.1215 49.0505 20.7751C47.8514 17.8005 46.6392 14.8309 45.4139 11.8665C45.2832 11.5698 45.0928 11.3036 44.8548 11.0847C42.1505 8.54491 39.4387 6.00917 36.7193 3.4775C36.5677 3.32511 36.3935 3.19406 36.2435 3.063C35.1828 3.99714 34.1766 4.92823 33.1129 5.77703C32.7046 6.10306 32.217 6.3135 31.7007 6.38658C30.0506 6.56183 28.3898 6.62889 26.7352 6.76299C26.4973 6.7828 26.12 6.89251 26.0639 7.05251C25.6184 8.30667 24.5729 8.83851 23.4986 9.36882C23.3076 9.46331 23.0531 9.68579 23.044 9.85494C22.994 11.4139 23.1046 12.9728 23.9683 14.3169C24.2835 14.806 24.838 15.2099 25.3714 15.4689C26.2382 15.888 27.1761 16.1577 28.0838 16.4899L28.0686 16.621H26.2124L26.226 19.5682ZM51.2613 68.4939L51.4552 68.5975C52.0962 67.924 52.7129 67.226 53.3887 66.589C53.7948 66.2096 53.9266 65.8057 53.9297 65.2617C53.9751 57.5103 54.0388 49.7588 54.1206 42.0073C54.1312 41.1296 53.9918 40.4286 53.2524 39.9181C52.6614 39.5081 52.5735 39.0235 52.8993 38.3561C53.7797 36.5488 54.01 34.6211 53.9873 32.6141C53.9463 29.068 54.0297 25.522 54.0509 21.9744C54.055 21.6468 54.0121 21.3204 53.9236 21.0052C53.4797 19.4813 53.0145 17.9574 52.5387 16.4335C52.4371 16.112 52.278 15.7295 52.0235 15.5482C50.69 14.5988 50.2961 13.2822 50.4082 11.7308C50.4247 11.6294 50.4201 11.5256 50.3946 11.4261C50.29 11.132 50.2339 10.7784 50.0354 10.5681C46.9443 7.28873 43.3364 4.76518 39.1482 3.1011C38.8982 3.00205 38.6361 2.93042 38.38 2.84661C40.9059 5.4052 43.491 7.81141 46.0624 10.2313C46.3193 10.4661 46.5256 10.7513 46.6685 11.0695C47.9504 14.1721 49.2167 17.2818 50.4673 20.3987C50.6049 20.7212 50.6834 21.066 50.6991 21.4166C50.7976 25.9746 50.8507 30.534 50.984 35.0919C51.0249 36.4482 50.8688 37.7039 50.1673 38.8635C49.8824 39.3359 49.8975 39.7474 50.2355 40.1756C51.0249 41.1737 51.1825 42.309 51.181 43.5739C51.1719 51.6504 51.2264 59.7361 51.2613 67.8173V68.4939Z" fill="black"/>
<path d="M26.2263 19.5682V16.6133H28.0825L28.0976 16.4823C27.1885 16.1501 26.252 15.8727 25.3853 15.4613C24.8519 15.2022 24.2973 14.7984 23.9822 14.3092C23.1185 12.9652 23.0078 11.4062 23.0578 9.84732C23.0578 9.67816 23.3185 9.45568 23.5124 9.3612C24.5867 8.83089 25.6338 8.29449 26.0778 7.04491C26.1338 6.8849 26.5111 6.77518 26.749 6.75536C28.4037 6.62126 30.0644 6.55422 31.7146 6.37897C32.2309 6.30589 32.7184 6.09546 33.1268 5.76942C34.1875 4.92062 35.1906 3.98952 36.2573 3.05538C36.4089 3.18643 36.5755 3.32358 36.7331 3.46987C39.4475 6.00256 42.1593 8.5383 44.8686 11.0771C45.1067 11.296 45.2971 11.5622 45.4277 11.8588C46.6531 14.8233 47.8653 17.7928 49.0644 20.7675C49.2086 21.1138 49.2902 21.4833 49.3053 21.8585C49.3826 26.1407 49.3947 30.4243 49.525 34.7033C49.5705 36.1663 49.4129 37.5225 48.6416 38.766C48.278 39.3512 48.2719 39.8586 48.7128 40.4027C49.622 41.5181 49.7947 42.8043 49.7857 44.2261C49.7432 51.0424 49.7857 57.8587 49.8084 64.6766C49.8084 65.1901 49.7114 65.5817 49.3144 65.9414C48.6234 66.5692 48.0916 67.5323 47.2961 67.8371C46.5384 68.1266 45.5293 67.7121 44.6292 67.6847C42.8684 67.6268 41.3608 67.2641 41.1789 64.8609L38.8303 67.5536C38.5818 65.6518 38.3545 63.9131 38.1029 61.9823C37.5529 62.8448 37.0968 63.5565 36.6452 64.2682C35.7679 65.6579 34.9027 67.0538 34.0072 68.4299C33.8784 68.6295 33.6071 68.8566 33.4011 68.8611C31.5403 68.8947 29.6796 68.8794 27.7718 68.8794C27.4688 67.4211 27.1885 66.0435 26.9036 64.6644L26.7672 64.6293C26.6278 65.1383 26.4914 65.6473 26.3475 66.1532C26.1066 67.002 26.1066 68.1678 25.5459 68.6066C24.9853 69.0455 23.8791 68.7514 22.9987 68.7514C22.3472 68.7514 21.5244 68.9373 21.0956 68.6143C20.6667 68.2912 20.641 67.4424 20.4455 66.8191C20.0137 65.4019 19.5924 63.9832 19.0181 62.566C18.6984 64.5897 18.3772 66.6119 18.0559 68.6447H10.9993C10.919 67.6298 10.8478 66.6835 10.7599 65.632L9.46892 66.5677L8.98251 63.9039C8.31731 65.437 7.72181 66.7612 7.17328 68.1068C6.99145 68.564 6.74446 68.6706 6.27473 68.5213C5.93531 57.432 5.59589 46.3427 5.25192 35.1483C6.10653 35.0066 6.96569 34.8847 7.81727 34.7125C8.04608 34.6668 8.24761 34.4717 8.46126 34.3452C8.32185 34.1441 8.22488 33.8881 8.03699 33.7524C7.27178 33.2252 6.16563 32.9082 5.78227 32.1905C5.38072 31.4392 5.65347 30.3176 5.65196 29.3591C5.65196 27.2546 5.69135 25.1517 5.65196 23.0487C5.60478 22.0868 5.79532 21.1282 6.20654 20.2585C6.63041 19.4464 6.76771 18.5137 6.59596 17.613C6.54142 17.3235 6.59596 17.0157 6.59596 16.653C7.55968 16.5707 8.50975 16.4853 9.45831 16.4076C10.2356 16.3436 10.3902 16.1348 10.1614 15.3988C9.83712 14.3626 9.48255 13.334 9.18556 12.2886C9.12344 12.0707 9.16586 11.7034 9.31132 11.5602C13.8768 7.06472 18.9909 3.48359 25.3323 2.00695C28.4067 1.29529 31.51 1.22673 34.8784 1.86829C33.9693 2.91672 33.2283 3.9057 32.3358 4.73012C31.9388 5.09585 31.2418 5.26958 30.669 5.28634C27.5491 5.3793 24.4276 5.38844 21.3062 5.43873C19.3363 5.4753 17.9726 6.71421 17.6498 8.74707C20.3379 6.03304 21.3623 5.67188 24.3519 6.42315C24.1807 6.63192 24.0276 6.8209 23.873 7.01138C22.6911 8.45755 21.485 9.88389 20.3425 11.359C19.8712 11.9686 19.3485 12.2398 18.5999 12.1286C18.1272 12.0585 17.6286 12.0996 17.1756 11.9686C15.6345 11.5205 14.4344 12.1209 13.2677 13.238C14.792 13.1008 16.2497 12.1011 17.7468 13.2852C16.0997 14.6963 14.9557 16.4579 14.8239 18.9357C15.1269 18.2866 15.3163 17.7608 15.6133 17.3082C16.4831 15.984 17.3907 14.6841 18.2999 13.3873C18.4029 13.2349 18.6196 13.0627 18.7696 13.0825C20.2197 13.206 21.0213 12.2703 21.785 11.263C21.8107 11.2068 21.8513 11.1589 21.9024 11.1244C21.9534 11.09 22.013 11.0705 22.0744 11.0679C22.1062 11.3285 22.1517 11.5891 22.1684 11.8497C22.2835 13.5991 23.1457 14.9889 24.361 16.1364C25.2701 16.9958 25.8187 17.965 25.9262 19.2039C25.9555 19.3411 26.0013 19.4742 26.0626 19.6002L26.2263 19.5682ZM17.6195 29.1381C18.5522 29.3049 19.3925 29.8077 19.9834 30.5523C20.4486 31.1116 20.7531 31.8263 21.2744 32.3154C21.6941 32.7086 22.3669 33.1307 22.8639 33.0621C23.5064 32.9753 23.3397 32.1676 23.3185 31.6327C23.3094 31.4087 23.1397 31.1756 23.0003 30.9729C22.382 30.0921 21.7471 29.2219 21.1319 28.367C23.2124 25.7444 22.2881 22.558 19.0424 22.1191C16.9755 21.8357 14.836 22.0597 12.7298 22.1191C12.1888 22.1359 11.5645 22.3767 11.6373 23.1157C11.707 23.8015 12.2176 24.0743 12.8768 24.0743H15.3163C15.3163 25.0221 15.3042 25.8267 15.3163 26.6298C15.3497 28.1979 15.386 29.7675 15.4451 31.3356C15.4709 32.0137 16.0512 32.7177 16.5649 32.6598C17.3044 32.5775 17.4135 32.0015 17.4438 31.3767C17.4832 30.6452 17.5574 29.9168 17.6195 29.1381ZM34.9648 24.632C34.9648 26.2275 34.9421 27.6935 34.9739 29.1595C34.9936 30.0951 35.0679 31.0308 35.1648 31.9619C35.2391 32.6811 35.8361 33.1139 36.5483 33.0499C37.2604 32.9859 37.2605 32.4739 37.2559 31.9436C37.2559 30.9866 37.2559 30.0296 37.2559 29.0482C37.8757 28.9385 38.4424 28.8303 39.0121 28.7434C39.8228 28.6154 40.5077 28.2619 40.9516 27.5609C41.8123 26.2047 41.929 24.7402 41.2835 23.2941C41.085 22.8476 40.535 22.2807 40.1198 22.2593C38.0393 22.1511 35.9497 22.1801 33.8647 22.2258C33.5071 22.235 32.9859 22.4666 32.8404 22.75C32.6131 23.1965 32.5646 23.7817 32.6055 24.2952C32.6161 24.437 33.2117 24.5863 33.542 24.6335C33.9541 24.6777 34.383 24.632 34.9648 24.632ZM27.7036 28.364H27.6673C27.6673 29.4002 27.7112 30.438 27.6537 31.4712C27.6067 32.3246 28.1703 32.2697 28.6855 32.2682C29.2007 32.2667 29.7462 32.3307 29.7371 31.4803C29.7129 29.6364 29.872 27.7864 29.7538 25.9517C29.6887 24.9581 29.2841 23.9585 28.8871 23.0243C28.5977 22.3431 27.8931 22.1481 27.4627 22.4315C27.0324 22.715 26.8824 23.4419 27.2657 24.0026C27.6673 24.5893 27.7279 25.1959 27.7067 25.8633C27.684 26.6954 27.7036 27.5304 27.7036 28.364Z" fill="#BBBBBB"/>
<path d="M51.2615 68.4939V67.8249C51.2267 59.7483 51.1721 51.6626 51.1812 43.5815C51.1812 42.3197 51.0297 41.1814 50.2357 40.1832C49.8978 39.755 49.8826 39.3436 50.1675 38.8712C50.8691 37.7115 51.0251 36.4558 50.9842 35.0996C50.8433 30.5416 50.7978 25.9822 50.6994 21.4242C50.6837 21.0737 50.6051 20.7288 50.4675 20.4063C49.2149 17.2915 47.9486 14.1817 46.6687 11.0771C46.5259 10.7589 46.3196 10.4737 46.0626 10.239C43.4867 7.81903 40.9107 5.41283 38.3802 2.85423C38.6363 2.93805 38.8985 3.00661 39.1485 3.10871C43.3367 4.76974 46.9445 7.2933 50.0357 10.5757C50.2342 10.786 50.2902 11.1396 50.3948 11.4337C50.4203 11.5332 50.425 11.637 50.4084 11.7385C50.2963 13.2898 50.6903 14.6064 52.0237 15.5558C52.2783 15.7371 52.4374 16.1196 52.5389 16.4412C53.0223 17.965 53.4799 19.4889 53.9239 21.0128C54.0124 21.328 54.0552 21.6544 54.0511 21.982C54.0299 25.5296 53.9466 29.0756 53.9875 32.6217C54.0102 34.6287 53.7799 36.5564 52.8995 38.3637C52.5737 39.0312 52.6616 39.5158 53.2526 39.9257C53.992 40.4362 54.1314 41.1448 54.1208 42.0149C54.0289 49.7654 53.9653 57.5169 53.9299 65.2693C53.9299 65.8134 53.795 66.2172 53.389 66.5967C52.7131 67.2321 52.0964 67.9316 51.4555 68.6051L51.2615 68.4939Z" fill="#BBBBBB"/>
<path d="M17.6195 29.1381C17.5574 29.9168 17.4832 30.6453 17.4468 31.3767C17.4165 32.0015 17.3074 32.5775 16.568 32.6598C16.0588 32.7177 15.4739 32.0137 15.4482 31.3356C15.3891 29.7675 15.3527 28.1979 15.3194 26.6298C15.3042 25.8267 15.3194 25.0221 15.3194 24.0743H12.8798C12.2207 24.0743 11.71 23.8015 11.6403 23.1158C11.5676 22.3767 12.1919 22.1359 12.7328 22.1191C14.839 22.0551 16.9756 21.8311 19.0454 22.1191C22.2911 22.5626 23.2154 25.749 21.135 28.367C21.7502 29.2219 22.3851 30.0921 23.0033 30.9729C23.1427 31.1725 23.3063 31.4087 23.3215 31.6327C23.3427 32.1676 23.5094 32.9753 22.8669 33.0621C22.3699 33.1307 21.6971 32.7086 21.2774 32.3154C20.7561 31.8263 20.4516 31.1116 19.9864 30.5523C19.3948 29.807 18.5533 29.3042 17.6195 29.1381ZM20.044 26.1894C19.7167 24.8728 19 24.1139 18.2954 24.2206C17.5908 24.3272 17.115 25.1273 17.1801 26.1894H20.044Z" fill="black"/>
<path d="M34.9648 24.632C34.383 24.632 33.9541 24.6777 33.5405 24.6183C33.2026 24.5711 32.6146 24.4217 32.604 24.28C32.5631 23.7665 32.6116 23.1813 32.8389 22.7348C32.9904 22.4513 33.5056 22.2197 33.8632 22.2106C35.9482 22.1648 38.0378 22.1359 40.1183 22.2441C40.5334 22.2654 41.0835 22.8323 41.282 23.2788C41.9275 24.7295 41.8108 26.194 40.9501 27.5457C40.5062 28.2467 39.8213 28.6002 39.0106 28.7282C38.4409 28.8196 37.8741 28.9278 37.2544 29.033C37.2544 30.0205 37.2544 30.9775 37.2544 31.9284C37.2544 32.4587 37.2635 32.9722 36.5468 33.0347C35.83 33.0972 35.2376 32.6659 35.1633 31.9466C35.0663 31.0156 34.9921 30.0799 34.9724 29.1442C34.9406 27.6935 34.9648 26.2275 34.9648 24.632ZM36.7362 25.8008C36.7059 27.1053 36.9074 27.2653 38.1363 26.9011C38.3045 26.8523 38.5121 26.8234 38.6197 26.7075C38.9727 26.325 39.5167 25.9334 39.5667 25.4961C39.6379 24.8713 38.9606 24.6076 38.4151 24.5192C36.6165 24.2312 36.871 24.2389 36.7362 25.8008Z" fill="black"/>
<path d="M27.7036 28.364C27.7036 27.5304 27.6839 26.6954 27.7036 25.8633C27.7249 25.1959 27.6642 24.5893 27.2627 24.0027C26.8793 23.4419 27.0309 22.7135 27.4597 22.4315C27.8885 22.1496 28.5946 22.3431 28.884 23.0243C29.281 23.9585 29.6856 24.9581 29.7508 25.9517C29.869 27.7804 29.7099 29.6364 29.7341 31.4803C29.7447 32.3307 29.1947 32.2667 28.6825 32.2682C28.1703 32.2697 27.6036 32.3246 27.6506 31.4712C27.7082 30.438 27.6642 29.4002 27.6642 28.364H27.7036Z" fill="black"/>
<path d="M20.0485 26.1848H17.1846C17.1195 25.1181 17.5998 24.3227 18.2999 24.216C19 24.1093 19.7212 24.8728 20.0485 26.1848Z" fill="#BBBBBB"/>
<path d="M36.7361 25.8008C36.871 24.2388 36.6165 24.2312 38.4151 24.5192C38.9606 24.6076 39.6379 24.8713 39.5667 25.4961C39.5167 25.9334 38.9727 26.325 38.6196 26.7075C38.5121 26.8234 38.3044 26.8599 38.1363 26.9011C36.9104 27.2653 36.7058 27.0992 36.7361 25.8008Z" fill="#BBBBBB"/>
</g>
<defs>
<clipPath id="clip0_24_210">
<rect width="59" height="73" fill="white"/>
</clipPath>
</defs>
</svg>
